<svg xmlns="http://www.w3.org/2000/svg" width="51.15" height="32.55" viewBox="0 0 51.15 32.55">
  <path id="Icon_material-people" data-name="Icon material-people" d="M36.375,21.45A6.975,6.975,0,1,0,29.4,14.475,6.946,6.946,0,0,0,36.375,21.45Zm-18.6,0A6.975,6.975,0,1,0,10.8,14.475,6.946,6.946,0,0,0,17.775,21.45Zm0,4.65C12.358,26.1,1.5,28.82,1.5,34.238V40.05H34.05V34.238C34.05,28.82,23.192,26.1,17.775,26.1Zm18.6,0c-.674,0-1.442.046-2.255.116,2.7,1.953,4.58,4.58,4.58,8.021V40.05H52.65V34.238C52.65,28.82,41.792,26.1,36.375,26.1Z" transform="translate(-1.5 -7.5)" fill="#8c5c03"/>
</svg>
