<svg xmlns="http://www.w3.org/2000/svg" width="29.25" height="29.25" viewBox="0 0 29.25 29.25">
  <path id="Icon_ionic-ios-football" data-name="Icon ionic-ios-football" d="M18,3.375A14.625,14.625,0,1,0,32.625,18,14.623,14.623,0,0,0,18,3.375Zm8.951,5.674a12.558,12.558,0,0,1,1.589,1.934.258.258,0,0,1,.028.246l-1.012,2.9a.279.279,0,0,1-.148.162l-4.043,1.842a.283.283,0,0,1-.3-.042l-3.98-3.347a.288.288,0,0,1-.1-.218V8.093a.281.281,0,0,1,.127-.232l2.7-1.835a.277.277,0,0,1,.246-.035A12.814,12.814,0,0,1,26.951,9.049Zm-5.2,20.925a.26.26,0,0,1-.183.169A12.638,12.638,0,0,1,18,30.649a12.858,12.858,0,0,1-3.572-.506.291.291,0,0,1-.183-.169l-1.153-3.023a.3.3,0,0,1,.014-.232l1.568-2.974a.284.284,0,0,1,.246-.148h6.152a.276.276,0,0,1,.246.148l1.568,2.974a.3.3,0,0,1,.014.232ZM17.016,8.107v4.437a.288.288,0,0,1-.1.218L12.93,16.1a.283.283,0,0,1-.3.042L8.592,14.3a.277.277,0,0,1-.148-.162l-1.012-2.9A.275.275,0,0,1,7.46,11a12.747,12.747,0,0,1,6.483-4.978.277.277,0,0,1,.246.035l2.7,1.835A.233.233,0,0,1,17.016,8.107ZM5.463,18.57,8,16.376a.281.281,0,0,1,.3-.042l3.684,1.673a.282.282,0,0,1,.155.19l1.027,4.029a.336.336,0,0,1-.021.2l-1.631,3.087a.274.274,0,0,1-.253.148L8.03,25.622a.294.294,0,0,1-.225-.112A12.566,12.566,0,0,1,5.365,18.8.308.308,0,0,1,5.463,18.57Zm19.012,6.94-1.624-3.08a.258.258,0,0,1-.021-.2L23.857,18.2a.282.282,0,0,1,.155-.19L27.7,16.334a.3.3,0,0,1,.3.042l2.538,2.194a.285.285,0,0,1,.1.232,12.53,12.53,0,0,1-2.44,6.708.273.273,0,0,1-.225.112l-3.241.042A.308.308,0,0,1,24.476,25.509Z" transform="translate(-3.375 -3.375)" fill="#8c5c03"/>
</svg>
